<svg width="20" height="20" viewBox="0 0 20 20" fill="none" xmlns="http://www.w3.org/2000/svg">
<path d="M12.046 0.241995L7.89801 0.231995H7.89601C3.52201 0.231995 0.0960083 3.65899 0.0960083 8.03399C0.0960083 12.132 3.28201 15.24 7.56101 15.404V19.232C7.56101 19.34 7.60501 19.518 7.68101 19.635C7.82301 19.86 8.06501 19.982 8.31301 19.982C8.45101 19.982 8.59001 19.944 8.71501 19.864C8.97901 19.696 15.188 15.724 16.803 14.358C18.705 12.748 19.843 10.388 19.846 8.04599V8.02899C19.84 3.66199 16.416 0.241994 12.046 0.240994V0.241995ZM15.833 13.214C14.699 14.174 10.971 16.619 9.06101 17.857V14.67C9.06101 14.256 8.72601 13.92 8.31101 13.92H7.91501C4.25501 13.92 1.59701 11.444 1.59701 8.03399C1.59701 4.49999 4.36501 1.73199 7.89701 1.73199L12.044 1.74199H12.046C15.578 1.74199 18.346 4.50799 18.348 8.03799C18.345 9.94799 17.406 11.882 15.834 13.214H15.833Z" fill="white" fill-opacity="0.01"/>
</svg>
